<mxfile host="Electron" agent="Mozilla/5.0 (Windows NT 10.0; Win64; x64) AppleWebKit/537.36 (KHTML, like Gecko) draw.io/26.0.16 Chrome/132.0.6834.196 Electron/34.2.0 Safari/537.36" version="26.0.16">
  <diagram name="Pagina-1" id="roOoh9oYrR07lbzbnFVZ">
    <mxGraphModel dx="2046" dy="713" grid="0" gridSize="10" guides="1" tooltips="1" connect="1" arrows="1" fold="1" page="1" pageScale="1" pageWidth="827" pageHeight="1169" math="0" shadow="0">
      <root>
        <mxCell id="0" />
        <mxCell id="1" parent="0" />
        <mxCell id="YKLzdEYi-6vaBAHf7f2h-21" value="" style="rounded=0;whiteSpace=wrap;html=1;fillColor=none;dashed=1;shadow=1;" parent="1" vertex="1">
          <mxGeometry x="-155.5" y="100" width="152.5" height="550" as="geometry" />
        </mxCell>
        <mxCell id="YKLzdEYi-6vaBAHf7f2h-1" value="&lt;font style=&quot;font-size: 19px;&quot;&gt;&lt;b style=&quot;&quot;&gt;HIGH LEVEL ARCHITECTURE&lt;/b&gt;&lt;/font&gt;" style="text;html=1;align=center;verticalAlign=middle;whiteSpace=wrap;rounded=0;fillColor=#f5f5f5;fontColor=#333333;strokeColor=#666666;" parent="1" vertex="1">
          <mxGeometry x="220.75" y="29" width="284" height="30" as="geometry" />
        </mxCell>
        <mxCell id="YKLzdEYi-6vaBAHf7f2h-3" value="&lt;b&gt;&lt;font style=&quot;font-size: 16px;&quot;&gt;SOURCES&lt;/font&gt;&lt;/b&gt;" style="rounded=0;whiteSpace=wrap;html=1;strokeColor=none;" parent="1" vertex="1">
          <mxGeometry x="-130.5" y="80" width="110" height="40" as="geometry" />
        </mxCell>
        <mxCell id="YKLzdEYi-6vaBAHf7f2h-4" value="" style="rounded=0;whiteSpace=wrap;html=1;fillColor=none;dashed=1;" parent="1" vertex="1">
          <mxGeometry x="17" y="100" width="640" height="550" as="geometry" />
        </mxCell>
        <mxCell id="YKLzdEYi-6vaBAHf7f2h-5" value="&lt;b&gt;&lt;font style=&quot;font-size: 16px;&quot;&gt;DATA WAREHOUSE&lt;/font&gt;&lt;/b&gt;" style="rounded=0;whiteSpace=wrap;html=1;strokeColor=none;" parent="1" vertex="1">
          <mxGeometry x="240.5" y="80" width="205" height="40" as="geometry" />
        </mxCell>
        <mxCell id="YKLzdEYi-6vaBAHf7f2h-6" value="" style="rounded=0;whiteSpace=wrap;html=1;fillColor=none;dashed=1;strokeColor=light-dark(#13458b, #5c79a3);" parent="1" vertex="1">
          <mxGeometry x="695" y="100" width="145" height="550" as="geometry" />
        </mxCell>
        <mxCell id="YKLzdEYi-6vaBAHf7f2h-7" value="&lt;b&gt;&lt;font style=&quot;font-size: 16px;&quot;&gt;SOURCES&lt;/font&gt;&lt;/b&gt;" style="rounded=0;whiteSpace=wrap;html=1;strokeColor=none;shadow=0;" parent="1" vertex="1">
          <mxGeometry x="-138" y="80" width="110" height="40" as="geometry" />
        </mxCell>
        <mxCell id="YKLzdEYi-6vaBAHf7f2h-8" value="&lt;b&gt;&lt;font style=&quot;font-size: 16px;&quot;&gt;CONSUME&lt;/font&gt;&lt;/b&gt;" style="rounded=0;whiteSpace=wrap;html=1;strokeColor=none;" parent="1" vertex="1">
          <mxGeometry x="712.5" y="80" width="110" height="40" as="geometry" />
        </mxCell>
        <mxCell id="YKLzdEYi-6vaBAHf7f2h-9" value="&lt;b&gt;Bronze Layer&lt;/b&gt;" style="rounded=0;whiteSpace=wrap;html=1;fillColor=#ffe6cc;strokeColor=#d79b00;" parent="1" vertex="1">
          <mxGeometry x="59" y="140" width="188" height="30" as="geometry" />
        </mxCell>
        <mxCell id="YKLzdEYi-6vaBAHf7f2h-10" value="" style="rounded=0;whiteSpace=wrap;html=1;fillColor=none;strokeColor=#d79b00;" parent="1" vertex="1">
          <mxGeometry x="59" y="180" width="188" height="460" as="geometry" />
        </mxCell>
        <mxCell id="YKLzdEYi-6vaBAHf7f2h-11" value="&lt;b&gt;Silver Layer&lt;/b&gt;" style="rounded=0;whiteSpace=wrap;html=1;fillColor=#f5f5f5;strokeColor=#666666;fontColor=#333333;" parent="1" vertex="1">
          <mxGeometry x="269" y="140" width="168" height="30" as="geometry" />
        </mxCell>
        <mxCell id="YKLzdEYi-6vaBAHf7f2h-12" value="" style="rounded=0;whiteSpace=wrap;html=1;fillColor=none;strokeColor=#C0C0C0;" parent="1" vertex="1">
          <mxGeometry x="269" y="180" width="168" height="460" as="geometry" />
        </mxCell>
        <mxCell id="YKLzdEYi-6vaBAHf7f2h-13" value="&lt;b&gt;Gold Layer&lt;/b&gt;" style="rounded=0;whiteSpace=wrap;html=1;fillColor=#fff2cc;strokeColor=#d6b656;" parent="1" vertex="1">
          <mxGeometry x="464" y="140" width="163" height="30" as="geometry" />
        </mxCell>
        <mxCell id="YKLzdEYi-6vaBAHf7f2h-14" value="" style="rounded=0;whiteSpace=wrap;html=1;fillColor=none;strokeColor=light-dark(#e5de1f, #484848);" parent="1" vertex="1">
          <mxGeometry x="464" y="180" width="163" height="460" as="geometry" />
        </mxCell>
        <mxCell id="YKLzdEYi-6vaBAHf7f2h-17" value="" style="image;aspect=fixed;html=1;points=[];align=center;fontSize=12;image=img/lib/azure2/general/Folder_Blank.svg;" parent="1" vertex="1">
          <mxGeometry x="-120.5" y="181" width="69" height="56.00000000000001" as="geometry" />
        </mxCell>
        <mxCell id="YKLzdEYi-6vaBAHf7f2h-19" value="" style="verticalLabelPosition=bottom;html=1;verticalAlign=top;align=center;strokeColor=none;fillColor=#00BEF2;shape=mxgraph.azure.cloud_services_configuration_file;pointerEvents=1;" parent="1" vertex="1">
          <mxGeometry x="-89.25" y="211" width="36.25" height="40" as="geometry" />
        </mxCell>
        <mxCell id="YKLzdEYi-6vaBAHf7f2h-20" value="&lt;b&gt;CRM&lt;/b&gt;" style="text;html=1;align=center;verticalAlign=middle;whiteSpace=wrap;rounded=0;" parent="1" vertex="1">
          <mxGeometry x="-116" y="251" width="60" height="30" as="geometry" />
        </mxCell>
        <mxCell id="YKLzdEYi-6vaBAHf7f2h-22" value="" style="image;aspect=fixed;html=1;points=[];align=center;fontSize=12;image=img/lib/azure2/general/Folder_Blank.svg;" parent="1" vertex="1">
          <mxGeometry x="-122" y="301" width="69" height="56.00000000000001" as="geometry" />
        </mxCell>
        <mxCell id="YKLzdEYi-6vaBAHf7f2h-23" value="" style="verticalLabelPosition=bottom;html=1;verticalAlign=top;align=center;strokeColor=none;fillColor=#00BEF2;shape=mxgraph.azure.cloud_services_configuration_file;pointerEvents=1;" parent="1" vertex="1">
          <mxGeometry x="-90.75" y="331" width="36.25" height="40" as="geometry" />
        </mxCell>
        <mxCell id="YKLzdEYi-6vaBAHf7f2h-24" value="&lt;b&gt;ERP&lt;/b&gt;" style="text;html=1;align=center;verticalAlign=middle;whiteSpace=wrap;rounded=0;" parent="1" vertex="1">
          <mxGeometry x="-117.5" y="371" width="60" height="30" as="geometry" />
        </mxCell>
        <mxCell id="YKLzdEYi-6vaBAHf7f2h-25" value="" style="endArrow=none;html=1;rounded=0;fillColor=#f5f5f5;strokeColor=#666666;" parent="1" edge="1">
          <mxGeometry width="50" height="50" relative="1" as="geometry">
            <mxPoint x="-100.75" y="451" as="sourcePoint" />
            <mxPoint x="-35.75" y="451" as="targetPoint" />
            <Array as="points">
              <mxPoint x="-122.75" y="451" />
            </Array>
          </mxGeometry>
        </mxCell>
        <mxCell id="YKLzdEYi-6vaBAHf7f2h-26" value="&lt;b&gt;Object Type&lt;/b&gt; : CSV files&lt;div&gt;&lt;b&gt;Interface&lt;/b&gt; : FIles in Folder&lt;/div&gt;" style="text;html=1;align=center;verticalAlign=middle;whiteSpace=wrap;rounded=0;" parent="1" vertex="1">
          <mxGeometry x="-148.62" y="471" width="138.75" height="30" as="geometry" />
        </mxCell>
        <mxCell id="YKLzdEYi-6vaBAHf7f2h-29" value="" style="html=1;verticalLabelPosition=bottom;align=center;labelBackgroundColor=#ffffff;verticalAlign=top;strokeWidth=2;strokeColor=#d79b00;shadow=0;dashed=0;shape=mxgraph.ios7.icons.data;fillColor=#ffe6cc;" parent="1" vertex="1">
          <mxGeometry x="132" y="218" width="42" height="47" as="geometry" />
        </mxCell>
        <mxCell id="YKLzdEYi-6vaBAHf7f2h-30" value="" style="html=1;verticalLabelPosition=bottom;align=center;labelBackgroundColor=#ffffff;verticalAlign=top;strokeWidth=2;strokeColor=#666666;shadow=0;dashed=0;shape=mxgraph.ios7.icons.data;fillColor=#f5f5f5;fontColor=#333333;" parent="1" vertex="1">
          <mxGeometry x="336" y="218" width="42" height="47" as="geometry" />
        </mxCell>
        <mxCell id="YKLzdEYi-6vaBAHf7f2h-31" value="" style="html=1;verticalLabelPosition=bottom;align=center;labelBackgroundColor=#ffffff;verticalAlign=top;strokeWidth=2;strokeColor=#d6b656;shadow=0;dashed=0;shape=mxgraph.ios7.icons.data;fillColor=#fff2cc;" parent="1" vertex="1">
          <mxGeometry x="524.5" y="216" width="42" height="47" as="geometry" />
        </mxCell>
        <mxCell id="YKLzdEYi-6vaBAHf7f2h-34" value="" style="shape=flexArrow;endArrow=classic;html=1;rounded=0;fillColor=#dae8fc;strokeColor=light-dark(#13458b, #5c79a3);" parent="1" edge="1">
          <mxGeometry width="50" height="50" relative="1" as="geometry">
            <mxPoint x="-4" y="252.5" as="sourcePoint" />
            <mxPoint x="66" y="252.5" as="targetPoint" />
          </mxGeometry>
        </mxCell>
        <mxCell id="YKLzdEYi-6vaBAHf7f2h-36" value="" style="shape=flexArrow;endArrow=classic;html=1;rounded=0;fillColor=#dae8fc;strokeColor=light-dark(#13458b, #5c79a3);" parent="1" edge="1">
          <mxGeometry width="50" height="50" relative="1" as="geometry">
            <mxPoint x="217" y="255" as="sourcePoint" />
            <mxPoint x="287" y="255" as="targetPoint" />
          </mxGeometry>
        </mxCell>
        <mxCell id="YKLzdEYi-6vaBAHf7f2h-37" value="" style="shape=flexArrow;endArrow=classic;html=1;rounded=0;fillColor=#dae8fc;strokeColor=light-dark(#13458b, #5c79a3);" parent="1" edge="1">
          <mxGeometry width="50" height="50" relative="1" as="geometry">
            <mxPoint x="402" y="255" as="sourcePoint" />
            <mxPoint x="472" y="255" as="targetPoint" />
          </mxGeometry>
        </mxCell>
        <mxCell id="YKLzdEYi-6vaBAHf7f2h-38" value="Raw Data" style="text;html=1;align=center;verticalAlign=middle;whiteSpace=wrap;rounded=0;" parent="1" vertex="1">
          <mxGeometry x="124" y="281" width="60" height="25" as="geometry" />
        </mxCell>
        <mxCell id="YKLzdEYi-6vaBAHf7f2h-39" value="Cleaned Standardized Data" style="text;html=1;align=center;verticalAlign=middle;whiteSpace=wrap;rounded=0;" parent="1" vertex="1">
          <mxGeometry x="297" y="278.5" width="120" height="30" as="geometry" />
        </mxCell>
        <mxCell id="YKLzdEYi-6vaBAHf7f2h-40" value="Business-ready Data" style="text;html=1;align=center;verticalAlign=middle;whiteSpace=wrap;rounded=0;" parent="1" vertex="1">
          <mxGeometry x="482.38" y="276" width="120" height="25" as="geometry" />
        </mxCell>
        <mxCell id="YKLzdEYi-6vaBAHf7f2h-41" value="" style="endArrow=none;html=1;rounded=0;fillColor=#ffe6cc;strokeColor=#d79b00;" parent="1" edge="1">
          <mxGeometry width="50" height="50" relative="1" as="geometry">
            <mxPoint x="95" y="325" as="sourcePoint" />
            <mxPoint x="198" y="325" as="targetPoint" />
          </mxGeometry>
        </mxCell>
        <mxCell id="YKLzdEYi-6vaBAHf7f2h-42" value="" style="endArrow=none;html=1;rounded=0;fillColor=#f5f5f5;strokeColor=#666666;" parent="1" edge="1">
          <mxGeometry width="50" height="50" relative="1" as="geometry">
            <mxPoint x="302.5" y="325" as="sourcePoint" />
            <mxPoint x="405.5" y="325" as="targetPoint" />
          </mxGeometry>
        </mxCell>
        <mxCell id="YKLzdEYi-6vaBAHf7f2h-43" value="" style="endArrow=none;html=1;rounded=0;fillColor=#fff2cc;strokeColor=#d6b656;" parent="1" edge="1">
          <mxGeometry width="50" height="50" relative="1" as="geometry">
            <mxPoint x="490.5" y="325" as="sourcePoint" />
            <mxPoint x="593.5" y="325" as="targetPoint" />
          </mxGeometry>
        </mxCell>
        <mxCell id="YKLzdEYi-6vaBAHf7f2h-44" value="&lt;b&gt;Object Type&lt;/b&gt; : Tables" style="text;html=1;align=center;verticalAlign=middle;whiteSpace=wrap;rounded=0;" parent="1" vertex="1">
          <mxGeometry x="272" y="335" width="138.75" height="30" as="geometry" />
        </mxCell>
        <mxCell id="YKLzdEYi-6vaBAHf7f2h-45" value="&lt;div style=&quot;text-align: left;&quot;&gt;&lt;b style=&quot;color: light-dark(rgb(0, 0, 0), rgb(255, 255, 255)); background-color: transparent;&quot;&gt;Load:&lt;/b&gt;&lt;/div&gt;&lt;div&gt;&lt;ul&gt;&lt;li style=&quot;text-align: left;&quot;&gt;&lt;span style=&quot;background-color: transparent; color: light-dark(rgb(0, 0, 0), rgb(255, 255, 255));&quot;&gt;Batch Processing&lt;/span&gt;&lt;/li&gt;&lt;li style=&quot;text-align: left;&quot;&gt;&lt;span style=&quot;background-color: transparent; color: light-dark(rgb(0, 0, 0), rgb(255, 255, 255));&quot;&gt;Full Load&lt;/span&gt;&lt;/li&gt;&lt;li style=&quot;text-align: left;&quot;&gt;&lt;span style=&quot;background-color: transparent; color: light-dark(rgb(0, 0, 0), rgb(255, 255, 255));&quot;&gt;Truncate &amp;amp; Insert&lt;/span&gt;&lt;/li&gt;&lt;/ul&gt;&lt;/div&gt;" style="text;html=1;align=center;verticalAlign=middle;whiteSpace=wrap;rounded=0;" parent="1" vertex="1">
          <mxGeometry x="254.5" y="395" width="190" height="30" as="geometry" />
        </mxCell>
        <mxCell id="YKLzdEYi-6vaBAHf7f2h-46" value="&lt;b&gt;Transformation:&lt;/b&gt;&lt;div&gt;&lt;ul&gt;&lt;li&gt;&lt;span style=&quot;background-color: transparent; color: light-dark(rgb(0, 0, 0), rgb(255, 255, 255));&quot;&gt;Data Cleansing&lt;/span&gt;&lt;/li&gt;&lt;li&gt;&lt;span style=&quot;background-color: transparent; color: light-dark(rgb(0, 0, 0), rgb(255, 255, 255));&quot;&gt;Data Standardization&lt;/span&gt;&lt;/li&gt;&lt;li&gt;&lt;span style=&quot;background-color: transparent; color: light-dark(rgb(0, 0, 0), rgb(255, 255, 255));&quot;&gt;Data normalization&lt;/span&gt;&lt;/li&gt;&lt;li&gt;&lt;span style=&quot;background-color: transparent; color: light-dark(rgb(0, 0, 0), rgb(255, 255, 255));&quot;&gt;Derived Columns&lt;/span&gt;&lt;/li&gt;&lt;li&gt;&lt;span style=&quot;background-color: transparent; color: light-dark(rgb(0, 0, 0), rgb(255, 255, 255));&quot;&gt;Data Enrichment&lt;/span&gt;&lt;/li&gt;&lt;/ul&gt;&lt;/div&gt;" style="text;html=1;align=left;verticalAlign=middle;whiteSpace=wrap;rounded=0;" parent="1" vertex="1">
          <mxGeometry x="280" y="495" width="190" height="30" as="geometry" />
        </mxCell>
        <mxCell id="YKLzdEYi-6vaBAHf7f2h-47" value="&lt;div style=&quot;text-align: left;&quot;&gt;&lt;b style=&quot;color: light-dark(rgb(0, 0, 0), rgb(255, 255, 255)); background-color: transparent;&quot;&gt;Data Model: &lt;/b&gt;&lt;span style=&quot;color: light-dark(rgb(0, 0, 0), rgb(255, 255, 255)); background-color: transparent;&quot;&gt;none (as-is)&lt;/span&gt;&lt;/div&gt;" style="text;html=1;align=center;verticalAlign=middle;whiteSpace=wrap;rounded=0;" parent="1" vertex="1">
          <mxGeometry x="257" y="557" width="190" height="30" as="geometry" />
        </mxCell>
        <mxCell id="YKLzdEYi-6vaBAHf7f2h-50" value="&lt;b&gt;Object Type&lt;/b&gt; : Views" style="text;html=1;align=left;verticalAlign=middle;whiteSpace=wrap;rounded=0;" parent="1" vertex="1">
          <mxGeometry x="473" y="335" width="138.75" height="30" as="geometry" />
        </mxCell>
        <mxCell id="YKLzdEYi-6vaBAHf7f2h-51" value="&lt;b&gt;No load&lt;/b&gt;" style="text;html=1;align=left;verticalAlign=middle;whiteSpace=wrap;rounded=0;" parent="1" vertex="1">
          <mxGeometry x="473" y="390" width="138.75" height="30" as="geometry" />
        </mxCell>
        <mxCell id="YKLzdEYi-6vaBAHf7f2h-52" value="&lt;b&gt;Transformation:&lt;/b&gt;&lt;div&gt;&lt;ul&gt;&lt;li&gt;&lt;span style=&quot;background-color: transparent; color: light-dark(rgb(0, 0, 0), rgb(255, 255, 255));&quot;&gt;Data Integration&lt;/span&gt;&lt;/li&gt;&lt;li&gt;&lt;span style=&quot;background-color: transparent; color: light-dark(rgb(0, 0, 0), rgb(255, 255, 255));&quot;&gt;Aggregations&lt;/span&gt;&lt;/li&gt;&lt;li&gt;&lt;span style=&quot;background-color: transparent; color: light-dark(rgb(0, 0, 0), rgb(255, 255, 255));&quot;&gt;Business Logic&lt;/span&gt;&lt;/li&gt;&lt;/ul&gt;&lt;/div&gt;" style="text;html=1;align=left;verticalAlign=middle;whiteSpace=wrap;rounded=0;" parent="1" vertex="1">
          <mxGeometry x="473" y="480" width="190" height="30" as="geometry" />
        </mxCell>
        <mxCell id="YKLzdEYi-6vaBAHf7f2h-53" value="&lt;div style=&quot;text-align: left;&quot;&gt;&lt;b style=&quot;color: light-dark(rgb(0, 0, 0), rgb(255, 255, 255)); background-color: transparent;&quot;&gt;Data Model:&lt;/b&gt;&lt;/div&gt;&lt;div style=&quot;text-align: left;&quot;&gt;&lt;ul&gt;&lt;li&gt;Star Schema&lt;/li&gt;&lt;li&gt;Flat table&lt;/li&gt;&lt;li&gt;Aggregated Table&lt;/li&gt;&lt;/ul&gt;&lt;/div&gt;" style="text;html=1;align=center;verticalAlign=middle;whiteSpace=wrap;rounded=0;" parent="1" vertex="1">
          <mxGeometry x="447.38" y="591" width="190" height="30" as="geometry" />
        </mxCell>
        <mxCell id="YKLzdEYi-6vaBAHf7f2h-56" value="&lt;b&gt;BI Reporting&lt;/b&gt;&lt;div&gt;&lt;b&gt;&lt;br&gt;&lt;/b&gt;&lt;/div&gt;&lt;div&gt;&lt;b&gt;&lt;br&gt;&lt;/b&gt;&lt;/div&gt;&lt;div&gt;&lt;b&gt;&lt;br&gt;&lt;/b&gt;&lt;/div&gt;&lt;div&gt;&lt;b&gt;&lt;br&gt;&lt;/b&gt;&lt;/div&gt;&lt;div&gt;&lt;b&gt;&lt;br&gt;&lt;/b&gt;&lt;/div&gt;&lt;div&gt;&lt;b&gt;&lt;br&gt;&lt;/b&gt;&lt;/div&gt;&lt;div&gt;&lt;b&gt;Ad hoc SQL Queries&lt;/b&gt;&lt;/div&gt;&lt;div&gt;&lt;b&gt;&lt;br&gt;&lt;/b&gt;&lt;/div&gt;&lt;div&gt;&lt;b&gt;&lt;br&gt;&lt;/b&gt;&lt;/div&gt;&lt;div&gt;&lt;b&gt;&lt;br&gt;&lt;/b&gt;&lt;/div&gt;&lt;div&gt;&lt;b&gt;&lt;br&gt;&lt;/b&gt;&lt;/div&gt;&lt;div&gt;&lt;b&gt;&lt;br&gt;&lt;/b&gt;&lt;/div&gt;&lt;div&gt;&lt;b&gt;&lt;br&gt;&lt;/b&gt;&lt;/div&gt;&lt;div&gt;&lt;b&gt;Machine Learning&lt;/b&gt;&lt;/div&gt;" style="text;html=1;align=center;verticalAlign=middle;whiteSpace=wrap;rounded=0;" parent="1" vertex="1">
          <mxGeometry x="717.25" y="327" width="100.5" height="30" as="geometry" />
        </mxCell>
        <mxCell id="YKLzdEYi-6vaBAHf7f2h-58" value="&lt;b&gt;Object Type&lt;/b&gt; : Tables" style="text;html=1;align=center;verticalAlign=middle;whiteSpace=wrap;rounded=0;" parent="1" vertex="1">
          <mxGeometry x="74.5" y="335" width="138.75" height="30" as="geometry" />
        </mxCell>
        <mxCell id="YKLzdEYi-6vaBAHf7f2h-59" value="&lt;div style=&quot;text-align: left;&quot;&gt;&lt;b style=&quot;color: light-dark(rgb(0, 0, 0), rgb(255, 255, 255)); background-color: transparent;&quot;&gt;Load:&lt;/b&gt;&lt;/div&gt;&lt;div&gt;&lt;ul&gt;&lt;li style=&quot;text-align: left;&quot;&gt;&lt;span style=&quot;background-color: transparent; color: light-dark(rgb(0, 0, 0), rgb(255, 255, 255));&quot;&gt;Batch Processing&lt;/span&gt;&lt;/li&gt;&lt;li style=&quot;text-align: left;&quot;&gt;&lt;span style=&quot;background-color: transparent; color: light-dark(rgb(0, 0, 0), rgb(255, 255, 255));&quot;&gt;Full Load&lt;/span&gt;&lt;/li&gt;&lt;li style=&quot;text-align: left;&quot;&gt;&lt;span style=&quot;background-color: transparent; color: light-dark(rgb(0, 0, 0), rgb(255, 255, 255));&quot;&gt;Truncate &amp;amp; Insert&lt;/span&gt;&lt;/li&gt;&lt;/ul&gt;&lt;/div&gt;" style="text;html=1;align=center;verticalAlign=middle;whiteSpace=wrap;rounded=0;" parent="1" vertex="1">
          <mxGeometry x="57" y="395" width="190" height="30" as="geometry" />
        </mxCell>
        <mxCell id="YKLzdEYi-6vaBAHf7f2h-60" value="&lt;b&gt;No Trasnformation&lt;/b&gt;" style="text;html=1;align=left;verticalAlign=middle;whiteSpace=wrap;rounded=0;" parent="1" vertex="1">
          <mxGeometry x="82" y="483" width="138.75" height="30" as="geometry" />
        </mxCell>
        <mxCell id="YKLzdEYi-6vaBAHf7f2h-61" value="&lt;div style=&quot;text-align: left;&quot;&gt;&lt;b style=&quot;color: light-dark(rgb(0, 0, 0), rgb(255, 255, 255)); background-color: transparent;&quot;&gt;Data Model: &lt;/b&gt;&lt;span style=&quot;color: light-dark(rgb(0, 0, 0), rgb(255, 255, 255)); background-color: transparent;&quot;&gt;none (as-is)&lt;/span&gt;&lt;/div&gt;" style="text;html=1;align=center;verticalAlign=middle;whiteSpace=wrap;rounded=0;" parent="1" vertex="1">
          <mxGeometry x="59" y="557" width="190" height="30" as="geometry" />
        </mxCell>
        <mxCell id="YKLzdEYi-6vaBAHf7f2h-62" value="" style="image;aspect=fixed;html=1;points=[];align=center;fontSize=12;image=img/lib/azure2/analytics/Power_BI_Embedded.svg;" parent="1" vertex="1">
          <mxGeometry x="752.5" y="247" width="30" height="40" as="geometry" />
        </mxCell>
        <mxCell id="YKLzdEYi-6vaBAHf7f2h-63" value="" style="sketch=0;points=[[0,0,0],[0.25,0,0],[0.5,0,0],[0.75,0,0],[1,0,0],[0,1,0],[0.25,1,0],[0.5,1,0],[0.75,1,0],[1,1,0],[0,0.25,0],[0,0.5,0],[0,0.75,0],[1,0.25,0],[1,0.5,0],[1,0.75,0]];outlineConnect=0;fontColor=#232F3E;fillColor=#8C4FFF;strokeColor=#ffffff;dashed=0;verticalLabelPosition=bottom;verticalAlign=top;align=center;html=1;fontSize=12;fontStyle=0;aspect=fixed;shape=mxgraph.aws4.resourceIcon;resIcon=mxgraph.aws4.sql_workbench;" parent="1" vertex="1">
          <mxGeometry x="749" y="362" width="41" height="41" as="geometry" />
        </mxCell>
        <mxCell id="YKLzdEYi-6vaBAHf7f2h-64" value="" style="sketch=0;points=[[0,0,0],[0.25,0,0],[0.5,0,0],[0.75,0,0],[1,0,0],[0,1,0],[0.25,1,0],[0.5,1,0],[0.75,1,0],[1,1,0],[0,0.25,0],[0,0.5,0],[0,0.75,0],[1,0.25,0],[1,0.5,0],[1,0.75,0]];outlineConnect=0;fontColor=#232F3E;fillColor=#01A88D;strokeColor=#ffffff;dashed=0;verticalLabelPosition=bottom;verticalAlign=top;align=center;html=1;fontSize=12;fontStyle=0;aspect=fixed;shape=mxgraph.aws4.resourceIcon;resIcon=mxgraph.aws4.codewhisperer;" parent="1" vertex="1">
          <mxGeometry x="743.5" y="471" width="46.5" height="46.5" as="geometry" />
        </mxCell>
        <mxCell id="YKLzdEYi-6vaBAHf7f2h-66" value="" style="shape=image;verticalLabelPosition=bottom;labelBackgroundColor=default;verticalAlign=top;aspect=fixed;imageAspect=0;image=https://cdn-icons-png.flaticon.com/512/5968/5968364.png;" parent="1" vertex="1">
          <mxGeometry x="37" y="80" width="50" height="50" as="geometry" />
        </mxCell>
      </root>
    </mxGraphModel>
  </diagram>
</mxfile>
